<?xml version="1.0" encoding="UTF-8"?>
<svg version="1.1" xmlns="http://www.w3.org/2000/svg" width="1120" height="1120">
<path d="M0 0 C3.97757948 0.00850222 7.95371381 -0.0203493 11.93115234 -0.05200195 C27.93554935 -0.095645 43.08266104 1.17400177 58.74755859 4.44604492 C59.72144028 4.64524536 60.69532196 4.8444458 61.69871521 5.04968262 C78.02619532 8.40563658 94.51685832 12.48970906 109.69140625 19.52099609 C111.86946757 20.50089093 114.07469282 21.35609233 116.31005859 22.19604492 C123.68693326 25.11701237 130.70540739 28.80719601 137.74755859 32.44604492 C138.66069824 32.9171167 138.66069824 32.9171167 139.59228516 33.39770508 C145.77577714 36.60631529 151.75456706 39.94949726 157.48974609 43.90698242 C160.98290021 46.288129 164.58137865 48.50044163 168.16943359 50.73510742 C170.83364605 52.50317569 173.27781256 54.41649021 175.74755859 56.44604492 C176.52873047 57.07381836 177.30990234 57.7015918 178.11474609 58.34838867 C194.72273406 71.82621068 210.43551558 85.62372687 223.74755859 102.44604492 C224.82313713 103.72344826 225.9055628 104.99514726 226.99755859 106.25854492 C227.46291016 106.79866211 227.92826172 107.3387793 228.40771484 107.89526367 C229.31054966 108.94023575 230.2142131 109.98449243 231.11865234 111.02807617 C233.68073737 114.03111352 235.72883969 117.06644836 237.74755859 120.44604492 C238.87866838 122.10203165 240.02481701 123.74783686 241.18505859 125.38354492 C241.80123047 126.26010742 242.41740234 127.13666992 243.05224609 128.03979492 C243.61169922 128.83385742 244.17115234 129.62791992 244.74755859 130.44604492 C248.55588114 135.87001945 251.62371342 141.61201443 254.74755859 147.44604492 C255.42129191 148.67822386 256.09580492 149.90997673 256.77099609 151.14135742 C260.56538947 158.09730334 263.9774865 165.01489212 266.74755859 172.44604492 C267.29561359 173.82083279 267.84668102 175.19442162 268.39990234 176.56713867 C271.81211919 185.07758743 274.89604531 193.52953103 277.20117188 202.41772461 C277.81971866 204.71392064 278.50010627 206.98793261 279.18115234 209.26635742 C282.5554862 220.90144257 284.64469709 232.43977533 286.06005859 244.44604492 C286.18175415 245.47467148 286.18175415 245.47467148 286.3059082 246.52407837 C290.50108621 282.63713609 290.31009425 322.2379643 278.82958984 357.11010742 C277.96778363 359.76708399 277.31367341 362.27172904 276.81005859 365.00854492 C274.62867196 375.54851586 269.75413708 385.81241895 265.14208984 395.48120117 C264.16056536 397.56797172 263.22997079 399.67907959 262.33740234 401.80541992 C260.56786895 405.85752096 258.58064544 409.736171 256.49755859 413.63354492 C256.1049585 414.36951904 255.7123584 415.10549316 255.30786133 415.86376953 C247.34091134 430.71765136 247.34091134 430.71765136 244.74755859 434.44604492 C244.08755859 434.44604492 243.42755859 434.44604492 242.74755859 434.44604492 C242.49103516 435.3406543 242.23451172 436.23526367 241.97021484 437.15698242 C240.739891 440.46667148 239.4547208 442.40247239 237.18505859 445.07104492 C233.21181304 449.84762428 229.50002284 454.77272136 225.82568359 459.78198242 C223.92989115 462.21230281 221.95137685 464.29964077 219.74755859 466.44604492 C218.5913455 467.77038743 217.44529958 469.10368144 216.31005859 470.44604492 C213.6675302 473.50076258 210.92997445 475.95171898 207.74755859 478.44604492 C206.39368924 480.0960732 205.06077717 481.76348362 203.74755859 483.44604492 C201.33630912 486.04277512 199.24763362 488.15331808 196.18505859 489.94604492 C193.56841145 491.36256557 193.56841145 491.36256557 191.68505859 494.07104492 C189.66116951 496.55194121 188.85598582 497.11299915 185.74755859 497.44604492 C185.74755859 498.10604492 185.74755859 498.76604492 185.74755859 499.44604492 C184.23803711 500.77124023 184.23803711 500.77124023 182.12646484 502.27416992 C181.35496094 502.82717773 180.58345703 503.38018555 179.78857422 503.94995117 C178.97066406 504.52616211 178.15275391 505.10237305 177.31005859 505.69604492 C176.52695312 506.25678711 175.74384766 506.8175293 174.93701172 507.39526367 C169.612702 511.19020377 164.20200274 514.84161935 158.74755859 518.44604492 C157.70986328 519.1447168 156.67216797 519.84338867 155.60302734 520.56323242 C154.72259766 521.14331055 153.84216797 521.72338867 152.93505859 522.32104492 C152.04173828 522.9165918 151.14841797 523.51213867 150.22802734 524.12573242 C147.74755859 525.44604492 147.74755859 525.44604492 143.74755859 525.44604492 C143.74755859 526.10604492 143.74755859 526.76604492 143.74755859 527.44604492 C121.62310326 538.12585157 121.62310326 538.12585157 110.74755859 542.44604492 C109.92771484 542.79022461 109.10787109 543.1344043 108.26318359 543.48901367 C101.5583753 546.27556616 94.70165148 548.37534729 87.74755859 550.44604492 C86.91482422 550.71416992 86.08208984 550.98229492 85.22412109 551.25854492 C77.85890794 553.607583 70.3421414 555.05068679 62.74755859 556.44604492 C61.67876465 556.64762207 61.67876465 556.64762207 60.58837891 556.85327148 C52.16368699 558.42940801 43.80843974 559.67459779 35.24755859 560.19604492 C34.5232666 560.24067871 33.79897461 560.2853125 33.05273438 560.33129883 C28.01182057 560.57817591 28.01182057 560.57817591 25.74755859 559.44604492 C25.72469312 526.34060462 25.70706082 493.23516636 25.69649326 460.12971998 C25.69524249 456.22547737 25.69394817 452.32123477 25.69262695 448.41699219 C25.69223349 447.25104589 25.69223349 447.25104589 25.69183207 446.06154513 C25.6874752 433.45895822 25.67958756 420.85637585 25.6704058 408.25379164 C25.66106973 395.3320953 25.65550308 382.41040134 25.6534701 369.48870176 C25.65209477 361.5088445 25.64774367 353.52900007 25.63964213 345.54914676 C25.63375458 339.44060449 25.63309951 333.33207336 25.63445091 327.22352791 C25.63417438 324.7099703 25.63216658 322.19641224 25.62835312 319.68285751 C25.62342297 316.26752163 25.62455779 312.85224193 25.62730408 309.43690491 C25.62293481 307.92380433 25.62293481 307.92380433 25.61847728 306.38013607 C25.62046833 305.47246217 25.62245938 304.56478828 25.62451077 303.62960911 C25.62413104 302.84017054 25.62375132 302.05073197 25.6233601 301.23737103 C25.74755859 299.44604492 25.74755859 299.44604492 26.74755859 298.44604492 C28.64584095 298.34947663 30.54776522 298.32417276 32.44850159 298.32579041 C34.30588455 298.32372841 34.30588455 298.32372841 36.20079041 298.32162476 C37.58560204 298.32516436 38.97041344 298.32879918 40.35522461 298.33251953 C41.80362954 298.3328014 43.25203461 298.33264368 44.70043945 298.33207703 C48.64448173 298.33178903 52.58849387 298.33768612 56.53252912 298.34465098 C60.64985328 298.35088414 64.76717807 298.35148829 68.88450623 298.35267639 C76.68661722 298.35578982 84.48871427 298.36400336 92.29081911 298.37402588 C101.17096163 298.38518666 110.05110481 298.39069738 118.9312526 298.39572132 C137.20336412 298.40618597 155.47545651 298.42453159 173.74755859 298.44604492 C173.74755859 283.26604492 173.74755859 268.08604492 173.74755859 252.44604492 C167.07581421 252.45390015 167.07581421 252.45390015 160.26928711 252.46191406 C145.61289742 252.47844568 130.95650738 252.48956525 116.30011082 252.49785709 C107.40946033 252.50302032 98.51881866 252.51006352 89.62817383 252.52148438 C81.88194633 252.5314304 74.13572521 252.53789815 66.3894915 252.54013342 C62.28534941 252.54144066 58.18122557 252.54452739 54.07708931 252.55177498 C50.21861219 252.55853391 46.36016094 252.56066214 42.50167847 252.5591526 C41.08143409 252.55942899 39.66118891 252.56143487 38.24094963 252.5652504 C36.31013989 252.57018559 34.37931644 252.56844296 32.44850159 252.56629944 C31.36539483 252.56722123 30.28228807 252.56814302 29.1663599 252.56909275 C26.74755859 252.44604492 26.74755859 252.44604492 25.74755859 251.44604492 C25.6509903 249.54776256 25.62568643 247.6458383 25.62730408 245.74510193 C25.62524208 243.88771896 25.62524208 243.88771896 25.62313843 241.99281311 C25.62667804 240.60800147 25.63031285 239.22319007 25.6340332 237.83837891 C25.63431507 236.38997398 25.63415735 234.94156891 25.6335907 233.49316406 C25.6333027 229.54912178 25.63919979 225.60510965 25.64616466 221.6610744 C25.65239782 217.54375023 25.65300196 213.42642545 25.65419006 209.30909729 C25.65730349 201.5069863 25.66551703 193.70488925 25.67553955 185.90278441 C25.68670034 177.02264188 25.69221105 168.14249871 25.69723499 159.26235092 C25.70769964 140.9902394 25.72604526 122.718147 25.74755859 104.44604492 C10.89755859 104.77604492 -3.95244141 105.10604492 -19.25244141 105.44604492 C-19.18025391 110.29936523 -19.10806641 115.15268555 -19.03369141 120.15307617 C-18.56608479 152.5288322 -18.13974506 184.90555834 -18.07519531 217.28500366 C-18.06930792 220.22581327 -18.0588458 223.16655036 -18.04443359 226.10733032 C-18.02499019 230.18381898 -18.02227877 234.26013459 -18.02197266 238.33666992 C-18.01125481 240.14825844 -18.01125481 240.14825844 -18.00032043 241.9964447 C-18.00335678 243.08872879 -18.00639313 244.18101288 -18.00952148 245.30639648 C-18.00809647 246.25693909 -18.00667145 247.20748169 -18.00520325 248.18682861 C-18.25244141 250.44604492 -18.25244141 250.44604492 -20.25244141 252.44604492 C-22.25428581 252.6965847 -22.25428581 252.6965847 -24.76217651 252.69760132 C-25.71206451 252.70298416 -26.66195251 252.708367 -27.640625 252.71391296 C-28.68669922 252.70978897 -29.73277344 252.70566498 -30.81054688 252.70141602 C-31.91012726 252.70503647 -33.00970764 252.70865692 -34.14260864 252.71238708 C-36.54017175 252.71929844 -38.93775064 252.72178329 -41.33532333 252.72043991 C-45.14684387 252.71947554 -48.95808162 252.7324127 -52.76956177 252.74942017 C-63.61067993 252.79567861 -74.45175795 252.82031908 -85.29296875 252.8269043 C-91.92197918 252.83110089 -98.55073536 252.85644495 -105.1796608 252.89223099 C-107.69183736 252.90194488 -110.20405409 252.90440762 -112.71624374 252.8990593 C-127.72723045 252.86864459 -141.67324699 253.77103129 -156.25244141 257.44604492 C-157.49863251 257.7466684 -158.74482361 258.04729187 -160.02877808 258.35702515 C-177.46073003 262.72544274 -193.85348687 270.65040068 -208.99853516 280.17260742 C-211.25244141 281.44604492 -211.25244141 281.44604492 -213.25244141 281.44604492 C-213.25244141 282.10604492 -213.25244141 282.76604492 -213.25244141 283.44604492 C-214.95498199 284.81954841 -216.71792758 286.11837037 -218.50244141 287.38354492 C-225.22404702 292.26586019 -231.24904859 297.71553359 -237.25244141 303.44604492 C-237.99494141 304.14729492 -238.73744141 304.84854492 -239.50244141 305.57104492 C-250.53293055 316.25683128 -258.99045834 328.91414316 -266.45556641 342.24682617 C-268.00821059 345.01120788 -269.60568246 347.73702481 -271.25244141 350.44604492 C-274.70014077 348.14757868 -274.93142407 346.92535529 -275.78320312 343.01879883 C-276.77549107 337.57825234 -277.55322227 332.11039237 -278.31494141 326.63354492 C-278.48832031 325.42633789 -278.66169922 324.21913086 -278.84033203 322.9753418 C-280.63877901 310.23461971 -281.48907473 297.74072774 -281.50244141 284.88354492 C-281.50445053 283.73461258 -281.50445053 283.73461258 -281.50650024 282.56246948 C-281.50151353 269.315172 -280.57641143 256.37712074 -278.65380859 243.25805664 C-278.27977615 240.63755439 -277.96297069 238.01768371 -277.66650391 235.38745117 C-274.28965732 207.21490249 -263.90495454 179.70438294 -251.25244141 154.44604492 C-250.73552734 153.40061523 -250.21861328 152.35518555 -249.68603516 151.27807617 C-245.8364462 143.82010058 -241.40468675 136.73541828 -236.93994141 129.63354492 C-236.31651855 128.63492432 -235.6930957 127.63630371 -235.05078125 126.60742188 C-234.46119629 125.68147217 -233.87161133 124.75552246 -233.26416016 123.80151367 C-232.73266357 122.96257568 -232.20116699 122.1236377 -231.65356445 121.25927734 C-231.19119385 120.66091064 -230.72882324 120.06254395 -230.25244141 119.44604492 C-229.59244141 119.44604492 -228.93244141 119.44604492 -228.25244141 119.44604492 C-228.08744141 118.64166992 -227.92244141 117.83729492 -227.75244141 117.00854492 C-225.99475915 112.83404957 -223.67566334 110.30917462 -220.60253906 107.03369141 C-218.34917321 104.55255442 -216.26625311 101.99873179 -214.18603516 99.37182617 C-209.55220937 93.67990143 -204.55605702 88.44401803 -199.35107422 83.28393555 C-197.87831618 81.82191331 -196.41659096 80.34947004 -194.95556641 78.87573242 C-186.91055841 70.8192836 -178.29763964 63.58099423 -169.12744141 56.83276367 C-167.88581624 55.91447839 -166.65625601 54.97963264 -165.43994141 54.02807617 C-160.34611154 50.06974588 -154.94862975 46.73709884 -149.43212891 43.39916992 C-146.71380911 41.72944032 -144.07085374 39.9985385 -141.43994141 38.19604492 C-135.53884891 34.21898805 -129.22362853 31.41420026 -122.72119141 28.57495117 C-119.93586936 27.30128334 -117.22580168 25.90964211 -114.50244141 24.50854492 C-108.22863317 21.36379854 -101.85821867 18.79782396 -95.25244141 16.44604492 C-94.42228516 16.14408203 -93.59212891 15.84211914 -92.73681641 15.53100586 C-77.46037921 10.01271657 -62.26327607 6.13356188 -46.25244141 3.44604492 C-44.86797497 3.18389555 -43.48353673 2.92159719 -42.09912109 2.65917969 C-28.09447561 0.14222519 -14.2012149 -0.0461361 0 0 Z " fill="#8CD2D3" transform="translate(556.25244140625,279.553955078125)"/>
<path d="M0 0 C2.36416117 0.00052011 4.72832277 -0.00000341 7.09248352 -0.00151062 C11.99604928 -0.00142179 16.89944755 0.00883772 21.80297852 0.02709961 C28.09667883 0.05002355 34.39014046 0.05027865 40.68387127 0.04358196 C45.54185628 0.04025192 50.39978639 0.04684985 55.257761 0.0567112 C57.58108038 0.06056238 59.90440586 0.06171175 62.22772789 0.06012535 C65.45101145 0.05975652 68.67398034 0.07231551 71.8972168 0.08862305 C72.85756332 0.08614563 73.81790985 0.08366821 74.80735779 0.08111572 C76.11643097 0.09174294 76.11643097 0.09174294 77.45195007 0.10258484 C78.5918541 0.10566414 78.5918541 0.10566414 79.75478649 0.10880566 C81.61328125 0.36328125 81.61328125 0.36328125 83.61328125 2.36328125 C83.86217022 4.81066608 83.86217022 4.81066608 83.86051941 7.95759583 C83.8647139 9.14902191 83.86890839 10.340448 83.87322998 11.56797791 C83.86761047 12.88335037 83.86199097 14.19872284 83.85620117 15.55395508 C83.85727408 16.94919931 83.85921289 18.34444311 83.86195374 19.73968506 C83.8668231 23.55036129 83.85910536 27.36092121 83.84900069 31.17158341 C83.84018026 35.20111334 83.8419789 39.23064 83.84236145 43.26017761 C83.84142187 50.07410597 83.832725 56.88799013 83.8190918 63.7019043 C83.80532131 70.60751221 83.79806945 77.51307934 83.79858398 84.41870117 C83.80237144 148.33614001 83.80237144 148.33614001 83.33699989 175.10428429 C83.30572964 176.95243174 83.2786839 178.80065694 83.25646019 180.64893532 C82.98282577 201.94913866 77.89695522 219.85451047 62.86328125 235.61328125 C50.95599486 246.90529752 35.24509745 255.48533528 18.53327942 255.49026489 C17.46340405 255.49260488 17.46340405 255.49260488 16.37191504 255.49499214 C13.9820532 255.4989807 11.59225489 255.49582082 9.20239258 255.49267578 C7.48916079 255.49403073 5.7759293 255.4958112 4.06269836 255.49798584 C-0.58988335 255.50254793 -5.24244291 255.5007759 -9.89502501 255.49760675 C-14.75792358 255.49507808 -19.62082023 255.497422 -24.48371887 255.49899292 C-32.64727113 255.50081261 -40.81081435 255.49841302 -48.97436523 255.49365234 C-58.42543962 255.48820465 -67.87649246 255.48997687 -77.32756633 255.49547875 C-85.43290523 255.50000908 -93.53823763 255.50066099 -101.6435774 255.49804008 C-106.48877492 255.49647757 -111.33396229 255.49628295 -116.17915916 255.49957657 C-120.73042758 255.5024543 -125.28166804 255.50048141 -129.83293343 255.49468231 C-131.50796334 255.49335442 -133.18299559 255.49374932 -134.8580246 255.49594498 C-137.13460466 255.49865522 -139.41109367 255.49527701 -141.68766785 255.49026489 C-142.96468661 255.48988787 -144.24170538 255.48951084 -145.55742168 255.48912239 C-148.38671875 255.36328125 -148.38671875 255.36328125 -149.38671875 254.36328125 C-149.48435531 252.96616186 -149.51303539 251.5641467 -149.51370239 250.16362 C-149.51652222 249.25717743 -149.51934204 248.35073486 -149.52224731 247.41682434 C-149.52022308 246.41390854 -149.51819885 245.41099274 -149.51611328 244.37768555 C-149.5178656 243.32701904 -149.51961792 242.27635254 -149.52142334 241.19384766 C-149.52585188 237.69171532 -149.52289638 234.18963292 -149.51953125 230.6875 C-149.52020496 228.24819428 -149.52117555 225.80888862 -149.52243042 223.36958313 C-149.52390951 218.23376838 -149.52174961 213.09797095 -149.51708984 207.9621582 C-149.51144951 201.43205951 -149.51463356 194.90200243 -149.52066231 188.37190533 C-149.52431138 183.31929727 -149.52310861 178.26669872 -149.52053452 173.21409035 C-149.5198742 170.81074837 -149.5206618 168.40740548 -149.52301407 166.00406456 C-149.53158404 154.76542836 -149.49660891 143.54302334 -148.94873047 132.31567383 C-148.91105623 131.54131579 -148.873382 130.76695776 -148.83456612 129.96913433 C-147.34367895 103.13280969 -138.78645311 77.80908772 -122.38671875 56.36328125 C-121.82339844 55.60917969 -121.26007813 54.85507812 -120.6796875 54.078125 C-116.5149351 48.59719802 -112.0418081 43.43171892 -107.38671875 38.36328125 C-106.49984375 37.39390625 -105.61296875 36.42453125 -104.69921875 35.42578125 C-102.3318196 33.31431715 -100.39487758 32.3087026 -97.38671875 31.36328125 C-97.38671875 30.70328125 -97.38671875 30.04328125 -97.38671875 29.36328125 C-95.0061464 27.51441034 -92.62990384 25.79868447 -90.13671875 24.11328125 C-89.40960693 23.61820068 -88.68249512 23.12312012 -87.93334961 22.61303711 C-81.99279854 18.63548479 -75.90773522 15.3020604 -69.38671875 12.36328125 C-68.64550781 12.01007812 -67.90429688 11.656875 -67.140625 11.29296875 C-64.91113079 10.25390172 -62.66133612 9.29945818 -60.38671875 8.36328125 C-58.93652344 7.74453125 -58.93652344 7.74453125 -57.45703125 7.11328125 C-39.09804369 -0.14391854 -19.46574575 -0.0858125 0 0 Z " fill="#57C4B2" transform="translate(454.38671875,577.63671875)"/>
<path d="M0 0 C0 0.33 0 0.66 0 1 C-5.28 1 -10.56 1 -16 1 C-16 1.66 -16 2.32 -16 3 C-17.90458984 3.07347656 -17.90458984 3.07347656 -19.84765625 3.1484375 C-32.04561125 3.66228602 -44.01117704 4.54729481 -56 7 C-57.58314455 7.27193469 -59.16649056 7.54269823 -60.75 7.8125 C-65.80783949 8.7277281 -70.80855707 9.83108152 -75.8125 11 C-76.52954102 11.16604736 -77.24658203 11.33209473 -77.98535156 11.50317383 C-82.07475132 12.47219205 -86.02692457 13.61623758 -90 15 C-91.21816406 15.4021875 -92.43632812 15.804375 -93.69140625 16.21875 C-94.98177635 16.64581665 -96.27214087 17.07290019 -97.5625 17.5 C-98.20896484 17.71269531 -98.85542969 17.92539062 -99.52148438 18.14453125 C-103.06642372 19.32016729 -106.5495059 20.57162988 -110 22 C-110.95777344 22.39058594 -111.91554688 22.78117187 -112.90234375 23.18359375 C-119.2059497 25.78612441 -119.2059497 25.78612441 -125.375 28.6875 C-128 30 -128 30 -130.9375 30.875 C-134.2273559 32.08351849 -136.43508106 33.68291974 -139.20703125 35.76953125 C-141.93739264 37.64330867 -144.94335799 38.7547014 -148 40 C-152.08917835 42.25980909 -155.92822345 44.92384397 -159.8046875 47.52734375 C-161.54895019 48.69742744 -163.30392334 49.85154177 -165.0625 51 C-168.21203669 53.14436541 -171.18900212 55.45435277 -174.16796875 57.828125 C-176 59 -176 59 -179 59 C-179.226875 59.598125 -179.45375 60.19625 -179.6875 60.8125 C-181.35609042 63.59348403 -183.1283832 64.5641916 -186 66 C-186.66 66 -187.32 66 -188 66 C-188.25136719 66.5775 -188.50273437 67.155 -188.76171875 67.75 C-191.96115411 73.56348507 -197.84907221 77.96278633 -203 82 C-206.97957051 85.87941353 -210.73257328 89.94054968 -214.47265625 94.04907227 C-217.05582913 96.8825759 -219.6513618 99.70214849 -222.27734375 102.49609375 C-223.08449829 103.35847656 -223.08449829 103.35847656 -223.90795898 104.23828125 C-224.94433931 105.3444317 -225.98405417 106.44747044 -227.02758789 107.546875 C-229.81044454 110.52631833 -231.95600324 113.48688056 -234 117 C-235.13698507 118.31786906 -236.30381955 119.61061627 -237.5 120.875 C-240.70551213 124.44416267 -242.28866143 127.55051972 -244 132 C-245.5625 134.4375 -245.5625 134.4375 -247 136 C-247.66 136 -248.32 136 -249 136 C-249.433125 137.36125 -249.433125 137.36125 -249.875 138.75 C-250.77146854 141.33979801 -251.71776778 143.59581459 -253 146 C-253.556875 147.11375 -253.556875 147.11375 -254.125 148.25 C-254.41375 148.8275 -254.7025 149.405 -255 150 C-255.66 150 -256.32 150 -257 150 C-257.0825 151.00675781 -257.165 152.01351562 -257.25 153.05078125 C-257.86811858 157.37434663 -259.7156076 160.52528351 -262 164.1875 C-265.21364073 169.29096969 -265.21364073 169.29096969 -267 175 C-268.39135741 179.47222023 -270.15617609 183.6977442 -272 188 C-272.67863055 189.9959722 -273.34641919 191.99568551 -274 194 C-274.33 194.7425 -274.66 195.485 -275 196.25 C-275.92279622 198.78768959 -276.44328943 201.10331858 -276.9375 203.75 C-277.72636879 207.96356106 -278.91367543 211.85188074 -280.33984375 215.88671875 C-281.28074972 218.89873135 -281.60926824 221.87414588 -282 225 C-282.33 225.33 -282.66 225.66 -283 226 C-286.47400975 243.77875577 -287.7812933 261.92024618 -288 280 C-288.01514648 281.13179687 -288.03029297 282.26359375 -288.04589844 283.4296875 C-288.08516537 286.86985361 -288.1099941 290.30964644 -288.125 293.75 C-288.12983398 294.80413086 -288.13466797 295.85826172 -288.13964844 296.94433594 C-288.13739258 297.92692383 -288.13513672 298.90951172 -288.1328125 299.921875 C-288.13168457 300.78393555 -288.13055664 301.64599609 -288.12939453 302.53417969 C-287.99416021 305.1112865 -287.53588598 307.47851015 -287 310 C-286.83516505 311.36996874 -286.69150647 312.74267052 -286.5703125 314.1171875 C-286.4986084 314.88248779 -286.4269043 315.64778809 -286.35302734 316.4362793 C-286.27777832 317.24105713 -286.2025293 318.04583496 -286.125 318.875 C-285.28580939 327.41339207 -283.82578066 335.61800699 -282 344 C-280.02 340.04 -278.04 336.08 -276 332 C-275.34 332 -274.68 332 -274 332 C-274 330.68 -274 329.36 -274 328 C-273.34 328 -272.68 328 -272 328 C-271.90976562 327.45085937 -271.81953125 326.90171875 -271.7265625 326.3359375 C-269.5084434 319.20456534 -263.34427089 312.73852934 -257.54296875 308.21875 C-254.67037693 305.94976608 -253.18027641 304.54082922 -252 301 C-251.01 300.67 -250.02 300.34 -249 300 C-248.67 299.01 -248.34 298.02 -248 297 C-247.01 296.67 -246.02 296.34 -245 296 C-243.38229612 294.24327469 -241.95965071 292.38527709 -240.5 290.49609375 C-239 289 -239 289 -236 289 C-235.67 288.01 -235.34 287.02 -235 286 C-234.01 286 -233.02 286 -232 286 C-232 285.01 -232 284.02 -232 283 C-230.13671875 281.4296875 -230.13671875 281.4296875 -227.6875 279.875 C-226.88699219 279.35679687 -226.08648437 278.83859375 -225.26171875 278.3046875 C-223 277 -223 277 -220 276 C-219.67 275.34 -219.34 274.68 -219 274 C-216.97259829 273.12611995 -214.9092763 272.47019078 -212.8125 271.78125 C-210.80487204 271.14670555 -210.80487204 271.14670555 -210 269 C-208.02111039 268.27306096 -206.02045442 267.60183749 -204 267 C-204 266.34 -204 265.68 -204 265 C-202.63875 264.938125 -202.63875 264.938125 -201.25 264.875 C-197.45214074 264.36094632 -194.55774814 262.84981869 -191.1875 261.0625 C-186.54417525 258.63083367 -182.52756996 257.23387886 -177.37109375 256.43359375 C-174.90361747 255.98237486 -172.72417475 255.24640328 -170.375 254.375 C-166.0850625 252.85325746 -162.52918262 252.75295368 -158 253 C-158 252.34 -158 251.68 -158 251 C-157.28714844 250.93941406 -156.57429687 250.87882813 -155.83984375 250.81640625 C-154.88207031 250.73261719 -153.92429687 250.64882813 -152.9375 250.5625 C-151.99777344 250.48128906 -151.05804688 250.40007812 -150.08984375 250.31640625 C-148.00702491 250.10312139 -145.92978052 249.82740192 -143.86277771 249.49404907 C-139.58143743 248.94646587 -135.41580101 248.81825071 -131.10571289 248.77880859 C-130.24281647 248.7673027 -129.37992004 248.75579681 -128.49087524 248.74394226 C-125.65150414 248.70741131 -122.81211146 248.67764478 -119.97265625 248.6484375 C-117.98074578 248.62528286 -115.98883805 248.6018923 -113.99693298 248.57827759 C-109.82179475 248.52989831 -105.64663665 248.48497777 -101.47143555 248.44238281 C-96.1629212 248.38786961 -90.85457007 248.32393393 -85.54619694 248.25720787 C-81.42885038 248.20668459 -77.31145624 248.161753 -73.19402885 248.11836624 C-71.23951616 248.09703523 -69.28502189 248.07392995 -67.33055305 248.0489006 C-55.83020602 247.90476251 -44.46896697 248.07640243 -33 249 C-33.0082782 247.60225342 -33.0082782 247.60225342 -33.01672363 246.17626953 C-33.03387426 243.0973352 -33.04574179 240.01842085 -33.05493164 236.93945312 C-33.05993786 235.5738853 -33.06674482 234.20832276 -33.07543945 232.84277344 C-33.08766831 230.87176882 -33.09272866 228.9007239 -33.09765625 226.9296875 C-33.10551147 225.15440674 -33.10551147 225.15440674 -33.11352539 223.34326172 C-33 220 -33 220 -32.43139648 216.62939453 C-32.28903564 215.76169434 -32.1466748 214.89399414 -32 214 C-32.33 213.67 -32.66 213.34 -33 213 C-33.25729813 209.42463704 -33.18972837 205.83349522 -33.1875 202.25 C-33.18814453 201.2077124 -33.18878906 200.1654248 -33.18945312 199.09155273 C-33.13786258 191.54584954 -32.58952249 184.39411801 -31 177 C-31.66 176.67 -32.32 176.34 -33 176 C-33.10673208 151.31204794 -33.16237341 126.66642926 -32 102 C-28.41250689 100.80416896 -25.707443 100.98217556 -21.92578125 101.12109375 C-20.90003242 101.15651024 -20.90003242 101.15651024 -19.8535614 101.19264221 C-17.67298774 101.2691145 -15.49278405 101.35320881 -13.3125 101.4375 C-11.8327003 101.49073719 -10.35288262 101.54347748 -8.87304688 101.59570312 C-5.24847183 101.72470697 -1.62418977 101.86054727 2 102 C-0.82879286 104.82879286 -2.79924198 104.3142666 -6.7578125 104.4140625 C-7.42086395 104.43342865 -8.08391541 104.4527948 -8.76705933 104.4727478 C-10.88624177 104.53255954 -13.0054785 104.57893388 -15.125 104.625 C-16.56122169 104.66317845 -17.99742045 104.70223011 -19.43359375 104.7421875 C-22.95551936 104.83826125 -26.47761608 104.92228642 -30 105 C-29.98747192 105.82840897 -29.97494385 106.65681793 -29.96203613 107.5103302 C-29.41507809 143.95110005 -28.89540912 180.39364984 -28.82275391 216.83895874 C-28.81686651 219.77976835 -28.8064044 222.72050544 -28.79199219 225.6612854 C-28.77254878 229.73777406 -28.76983737 233.81408967 -28.76953125 237.890625 C-28.7588134 239.70221352 -28.7588134 239.70221352 -28.74787903 241.55039978 C-28.75091537 242.64268387 -28.75395172 243.73496796 -28.75708008 244.86035156 C-28.75565506 245.81089417 -28.75423004 246.76143677 -28.75276184 247.74078369 C-29 250 -29 250 -31 252 C-33.00184441 252.25053978 -33.00184441 252.25053978 -35.50973511 252.2515564 C-36.45962311 252.25693924 -37.40951111 252.26232208 -38.38818359 252.26786804 C-39.43425781 252.26374405 -40.48033203 252.25962006 -41.55810547 252.25537109 C-42.65768585 252.25899155 -43.75726624 252.262612 -44.89016724 252.26634216 C-47.28773034 252.27325352 -49.68530924 252.27573836 -52.08288193 252.27439499 C-55.89440246 252.27343061 -59.70564021 252.28636778 -63.51712036 252.30337524 C-74.35823852 252.34963369 -85.19931654 252.37427415 -96.04052734 252.38085938 C-102.66953777 252.38505597 -109.29829395 252.41040003 -115.92721939 252.44618607 C-118.43939596 252.45589996 -120.95161268 252.4583627 -123.46380234 252.45301437 C-138.47478904 252.42259967 -152.42080558 253.32498637 -167 257 C-168.2461911 257.30062347 -169.4923822 257.60124695 -170.77633667 257.91098022 C-188.20828862 262.27939782 -204.60104546 270.20435575 -219.74609375 279.7265625 C-222 281 -222 281 -224 281 C-224 281.66 -224 282.32 -224 283 C-225.70254058 284.37350348 -227.46548617 285.67232545 -229.25 286.9375 C-235.97160562 291.81981527 -241.99660718 297.26948867 -248 303 C-248.7425 303.70125 -249.485 304.4025 -250.25 305.125 C-261.28048914 315.81078636 -269.73801693 328.46809824 -277.203125 341.80078125 C-278.75576918 344.56516295 -280.35324106 347.29097989 -282 350 C-285.44769937 347.70153376 -285.67898267 346.47931036 -286.53076172 342.57275391 C-287.52304966 337.13220741 -288.30078087 331.66434745 -289.0625 326.1875 C-289.23587891 324.98029297 -289.40925781 323.77308594 -289.58789062 322.52929688 C-291.3863376 309.78857478 -292.23663332 297.29468282 -292.25 284.4375 C-292.25200912 283.28856766 -292.25200912 283.28856766 -292.25405884 282.11642456 C-292.24907212 268.86912707 -291.32397003 255.93107582 -289.40136719 242.81201172 C-289.02733474 240.19150947 -288.71052929 237.57163879 -288.4140625 234.94140625 C-285.03721591 206.76885757 -274.65251313 179.25833802 -262 154 C-261.48308594 152.95457031 -260.96617187 151.90914062 -260.43359375 150.83203125 C-256.58400479 143.37405565 -252.15224535 136.28937336 -247.6875 129.1875 C-247.06407715 128.18887939 -246.4406543 127.19025879 -245.79833984 126.16137695 C-245.20875488 125.23542725 -244.61916992 124.30947754 -244.01171875 123.35546875 C-243.48022217 122.51653076 -242.94872559 121.67759277 -242.40112305 120.81323242 C-241.93875244 120.21486572 -241.47638184 119.61649902 -241 119 C-240.34 119 -239.68 119 -239 119 C-238.835 118.195625 -238.67 117.39125 -238.5 116.5625 C-236.74231775 112.38800465 -234.42322193 109.8631297 -231.35009766 106.58764648 C-229.09673181 104.1065095 -227.0138117 101.55268687 -224.93359375 98.92578125 C-220.29976796 93.23385651 -215.30361561 87.99797311 -210.09863281 82.83789062 C-208.62587477 81.37586839 -207.16414955 79.90342512 -205.703125 78.4296875 C-197.65811701 70.37323868 -189.04519824 63.13494931 -179.875 56.38671875 C-178.63337483 55.46843347 -177.4038146 54.53358772 -176.1875 53.58203125 C-171.09367014 49.62370096 -165.69618834 46.29105391 -160.1796875 42.953125 C-157.4613677 41.28339539 -154.81841234 39.55249357 -152.1875 37.75 C-146.2864075 33.77294313 -139.97118712 30.96815534 -133.46875 28.12890625 C-130.68342796 26.85523842 -127.97336027 25.46359719 -125.25 24.0625 C-118.97619176 20.91775362 -112.60577726 18.35177903 -106 16 C-105.16984375 15.69803711 -104.3396875 15.39607422 -103.484375 15.08496094 C-89.13127049 9.90020602 -74.88960031 6.09998695 -59.8515625 3.50390625 C-57.31671516 3.05596747 -54.80120758 2.55515871 -52.28125 2.03125 C-35.12473224 -1.29282532 -17.39325287 -0.26892518 0 0 Z " fill="#71C2CD" transform="translate(567,280)"/>
<path d="M0 0 C0.598125 0.20625 1.19625 0.4125 1.8125 0.625 C0.85150391 1.56859375 0.85150391 1.56859375 -0.12890625 2.53125 C-4.75718009 7.1112408 -9.23876415 11.72387353 -13.45703125 16.68359375 C-15.97596056 19.50957087 -18.72175957 22.0862442 -21.48828125 24.66796875 C-23.40893218 26.88002879 -24.21473793 28.8783777 -25.1875 31.625 C-26.6875 34.4375 -26.6875 34.4375 -28.1875 36.625 C-28.8475 36.625 -29.5075 36.625 -30.1875 36.625 C-30.290625 37.718125 -30.39375 38.81125 -30.5 39.9375 C-31.21040732 43.74786654 -31.47996695 44.24237092 -34.1875 46.625 C-35.37777984 49.22415538 -35.37777984 49.22415538 -36.1875 51.625 C-36.8475 51.625 -37.5075 51.625 -38.1875 51.625 C-38.31125 52.429375 -38.435 53.23375 -38.5625 54.0625 C-40.15111094 63.11758234 -42.25629865 72.06231142 -45.8125 80.5625 C-49.11232144 89.22556495 -48.32983719 99.31531926 -48.30102539 108.44018555 C-48.30117142 109.67074173 -48.30131744 110.90129791 -48.3014679 112.16914368 C-48.30089512 115.50725374 -48.29591802 118.84530014 -48.28889394 122.18339896 C-48.28259588 125.68539981 -48.28205154 129.18740171 -48.28086853 132.68940735 C-48.27777409 139.30475173 -48.26958642 145.92007938 -48.25951904 152.53541642 C-48.24829894 160.07361524 -48.24283266 167.6118149 -48.23782361 175.15002 C-48.22740201 190.64168966 -48.20983952 206.13334266 -48.1875 221.625 C-47.49893291 221.46206388 -46.81036583 221.29912777 -46.10093307 221.1312542 C-42.86417614 220.56881746 -39.85844817 220.51132662 -36.5725708 220.52493286 C-35.92128039 220.52619513 -35.26998998 220.52745741 -34.5989635 220.52875793 C-32.42433068 220.53412013 -30.24979827 220.54664254 -28.07519531 220.55908203 C-26.51272734 220.56427743 -24.95025768 220.56898512 -23.38778687 220.57324219 C-20.02603881 220.58317306 -16.66431884 220.59601919 -13.30258942 220.61096573 C-7.98174613 220.63406231 -2.66090661 220.64734303 2.65997314 220.65866089 C17.78964031 220.69206558 32.9192521 220.7336519 48.04882812 220.79638672 C56.40713863 220.83096205 64.76540797 220.85473732 73.1237824 220.86659515 C77.54340493 220.87335232 81.96285281 220.88575381 86.38240814 220.91162491 C90.54223756 220.93597505 94.70186839 220.94626891 98.86176682 220.94602966 C100.38348752 220.94844082 101.90521061 220.9559698 103.42687607 220.96915817 C113.97547161 221.05939552 113.97547161 221.05939552 124.09225845 218.31713676 C126.55296189 217.3270762 128.99853889 217.13050695 131.625 216.875 C144.82156235 214.81251313 155.95655259 205.01512399 163.8125 194.625 C164.5859375 193.2328125 164.5859375 193.2328125 165.375 191.8125 C165.849375 191.090625 166.32375 190.36875 166.8125 189.625 C167.8025 189.625 168.7925 189.625 169.8125 189.625 C166.88828909 198.30480063 158.96106487 205.15752621 151.8125 210.625 C151.19503906 211.11484375 150.57757813 211.6046875 149.94140625 212.109375 C140.33494031 219.15532733 127.60604558 223.74848121 115.73249817 223.75198364 C114.6626228 223.75432363 114.6626228 223.75432363 113.57113379 223.75671089 C111.18127195 223.76069945 108.79147364 223.75753957 106.40161133 223.75439453 C104.68837954 223.75574948 102.97514805 223.75752995 101.26191711 223.75970459 C96.6093354 223.76426668 91.95677584 223.76249465 87.30419374 223.7593255 C82.44129517 223.75679683 77.57839852 223.75914075 72.71549988 223.76071167 C64.55194762 223.76253136 56.3884044 223.76013177 48.22485352 223.75537109 C38.77377913 223.7499234 29.32272629 223.75169562 19.87165242 223.7571975 C11.76631352 223.76172783 3.66098112 223.76237974 -4.44435865 223.75975883 C-9.28955617 223.75819632 -14.13474354 223.7580017 -18.97994041 223.76129532 C-23.53120883 223.76417305 -28.08244929 223.76220016 -32.63371468 223.75640106 C-34.30874459 223.75507317 -35.98377684 223.75546807 -37.65880585 223.75766373 C-39.93538591 223.76037397 -42.21187492 223.75699576 -44.4884491 223.75198364 C-45.76546786 223.75160662 -47.04248663 223.75122959 -48.35820293 223.75084114 C-51.1875 223.625 -51.1875 223.625 -52.1875 222.625 C-52.28513656 221.22788061 -52.31381664 219.82586545 -52.31448364 218.42533875 C-52.31730347 217.51889618 -52.32012329 216.61245361 -52.32302856 215.67854309 C-52.32100433 214.67562729 -52.3189801 213.67271149 -52.31689453 212.6394043 C-52.31864685 211.58873779 -52.32039917 210.53807129 -52.32220459 209.45556641 C-52.32663313 205.95343407 -52.32367763 202.45135167 -52.3203125 198.94921875 C-52.32098621 196.50991303 -52.3219568 194.07060737 -52.32321167 191.63130188 C-52.32469076 186.49548713 -52.32253086 181.3596897 -52.31787109 176.22387695 C-52.31223076 169.69377826 -52.31541481 163.16372118 -52.32144356 156.63362408 C-52.32509263 151.58101602 -52.32388986 146.52841747 -52.32131577 141.4758091 C-52.32065545 139.07246712 -52.32144305 136.66912423 -52.32379532 134.26578331 C-52.33236529 123.02714711 -52.29739016 111.80474209 -51.74951172 100.57739258 C-51.71183748 99.80303454 -51.67416325 99.02867651 -51.63534737 98.23085308 C-50.1444602 71.39452844 -41.58723436 46.07080647 -25.1875 24.625 C-24.62417969 23.87089844 -24.06085938 23.11679687 -23.48046875 22.33984375 C-5.75552563 -0.98666154 -5.75552563 -0.98666154 0 0 Z " fill="#5FB8A5" transform="translate(357.1875,609.375)"/>
<path d="M0 0 C0.99 0.33 1.98 0.66 3 1 C3.71504168 49.93667087 4.10976846 98.86925063 4.12338257 147.81138611 C4.12498604 151.59207425 4.12853467 155.37275612 4.13256836 159.15344238 C4.18061909 209.78392083 4.18061909 209.78392083 3.08981323 234.79013062 C3.03281498 236.19258194 3 237.5963909 3 239 C3 239.99 3 240.98 3 242 C12.9 241.01 22.8 240.02 33 239 C32.67 239.99 32.34 240.98 32 242 C24.61162629 243.3234826 17.29998624 244.22865906 9.8125 244.6875 C9.07008057 244.73575928 8.32766113 244.78401855 7.56274414 244.83374023 C2.25016978 245.12508489 2.25016978 245.12508489 0 244 C0 163.48 0 82.96 0 0 Z " fill="#8DC8AD" transform="translate(582,595)"/>
<path d="M0 0 C0.598125 0.20625 1.19625 0.4125 1.8125 0.625 C0.85150391 1.56859375 0.85150391 1.56859375 -0.12890625 2.53125 C-4.75718009 7.1112408 -9.23876415 11.72387353 -13.45703125 16.68359375 C-15.97596056 19.50957087 -18.72175957 22.0862442 -21.48828125 24.66796875 C-23.40893218 26.88002879 -24.21473793 28.8783777 -25.1875 31.625 C-26.6875 34.4375 -26.6875 34.4375 -28.1875 36.625 C-28.8475 36.625 -29.5075 36.625 -30.1875 36.625 C-30.290625 37.718125 -30.39375 38.81125 -30.5 39.9375 C-31.21040732 43.74786654 -31.47996695 44.24237092 -34.1875 46.625 C-35.37777984 49.22415538 -35.37777984 49.22415538 -36.1875 51.625 C-36.8475 51.625 -37.5075 51.625 -38.1875 51.625 C-38.31125 52.429375 -38.435 53.23375 -38.5625 54.0625 C-40.15111094 63.11758234 -42.25629865 72.06231142 -45.8125 80.5625 C-49.10205094 89.20057892 -48.28900381 99.15939854 -48.1875 108.25 C-48.10672877 121.39827108 -48.54169708 134.49424649 -49.1875 147.625 C-52.43660536 144.15070912 -52.55225152 141.61053856 -52.515625 136.9375 C-52.51425034 136.28698166 -52.51287567 135.63646332 -52.51145935 134.9662323 C-52.50243435 132.85204325 -52.47095707 130.73893288 -52.4375 128.625 C-52.42356852 127.16317352 -52.41030696 125.7013405 -52.39770508 124.23950195 C-52.35426187 120.03393588 -52.27556831 115.82987089 -52.1875 111.625 C-52.16671387 110.5839209 -52.14592773 109.5428418 -52.12451172 108.47021484 C-51.38926602 77.91122527 -44.0052416 49.23281594 -25.1875 24.625 C-24.62417969 23.87089844 -24.06085938 23.11679687 -23.48046875 22.33984375 C-5.75552563 -0.98666154 -5.75552563 -0.98666154 0 0 Z " fill="#54AFA2" transform="translate(357.1875,609.375)"/>
<path d="M0 0 C1.39136534 0.04232649 2.78256436 0.09034885 4.17358398 0.14282227 C5.27016579 0.17823875 5.27016579 0.17823875 6.38890076 0.21437073 C8.7326823 0.29117936 11.07614756 0.37512882 13.41967773 0.45922852 C15.00494852 0.51243203 16.59023491 0.56517253 18.17553711 0.61743164 C22.06961905 0.74681756 25.96343184 0.88260983 29.85717773 1.02172852 C27.02838487 3.85052138 25.05793576 3.33599512 21.09936523 3.43579102 C20.43631378 3.45515717 19.77326233 3.47452332 19.09011841 3.49447632 C16.97093597 3.55428805 14.85169924 3.60066239 12.73217773 3.64672852 C11.29595605 3.68490697 9.85975728 3.72395863 8.42358398 3.76391602 C4.90165837 3.85998977 1.37956165 3.94401493 -2.14282227 4.02172852 C-2.13029419 4.85013748 -2.11776611 5.67854645 -2.1048584 6.53205872 C-1.94324674 17.29934404 -1.78991173 28.06673502 -1.64282227 38.83422852 C-1.63094501 39.70330086 -1.61906776 40.5723732 -1.6068306 41.46778107 C-1.24989211 67.77810397 -1.04942512 94.08394987 -1.08032227 120.39672852 C-1.08117828 121.13113285 -1.0820343 121.86553719 -1.08291626 122.6221962 C-1.09396575 131.42206536 -1.11348906 140.2218999 -1.14282227 149.02172852 C-2.13282227 148.69172852 -3.12282227 148.36172852 -4.14282227 148.02172852 C-6.01618873 124.1363061 -6.01618873 124.1363061 -4.57250977 115.68188477 C-4.43071289 114.8040332 -4.28891602 113.92618164 -4.14282227 113.02172852 C-4.47282227 112.69172852 -4.80282227 112.36172852 -5.14282227 112.02172852 C-5.4001204 108.44636556 -5.33255063 104.85522374 -5.33032227 101.27172852 C-5.3309668 100.22944092 -5.33161133 99.18715332 -5.33227539 98.11328125 C-5.28068485 90.56757806 -4.73234476 83.41584653 -3.14282227 76.02172852 C-3.80282227 75.69172852 -4.46282227 75.36172852 -5.14282227 75.02172852 C-5.33263661 31.11620942 -5.33263661 31.11620942 -4.70532227 12.77172852 C-4.66608643 11.57330322 -4.62685059 10.37487793 -4.58642578 9.14013672 C-4.23083573 0.02925071 -4.23083573 0.02925071 0 0 Z " fill="#73CED9" transform="translate(539.142822265625,380.978271484375)"/>
<path d="M0 0 C2.3755955 -0.00134899 4.75119072 -0.00329147 7.12678528 -0.00579834 C12.07812152 -0.00873226 17.02938514 -0.00450373 21.98071289 0.00488281 C28.33740776 0.01634517 34.69393499 0.0096643 41.05062389 -0.00226212 C45.94292988 -0.00946914 50.83519567 -0.00719932 55.72750282 -0.00200653 C58.07315402 -0.00067037 60.41880883 -0.00231657 62.7644558 -0.00696564 C66.02690797 -0.01201924 69.28908232 -0.00434018 72.55151367 0.00683594 C73.52442856 0.00278748 74.49734344 -0.00126099 75.4997406 -0.00543213 C76.8261557 0.00302734 76.8261557 0.00302734 78.17936707 0.01165771 C79.33485692 0.01278879 79.33485692 0.01278879 80.51368999 0.01394272 C82.39453125 0.265625 82.39453125 0.265625 84.39453125 2.265625 C84.01953125 4.390625 84.01953125 4.390625 83.39453125 6.265625 C82.40453125 4.780625 82.40453125 4.780625 81.39453125 3.265625 C80.55213394 3.3370874 79.70973663 3.4085498 78.84181213 3.48217773 C68.71864003 4.2570279 58.65933106 4.38652518 48.50953484 4.34078979 C45.60405118 4.32782229 42.69861406 4.32146076 39.79310608 4.31665039 C33.63939319 4.30533572 27.48571972 4.28605557 21.33203125 4.265625 C14.16266217 4.24195544 6.99331448 4.2216246 -0.17608452 4.20968628 C-3.03108041 4.20323136 -5.88600839 4.19073327 -8.74098206 4.17797852 C-10.49146466 4.17434609 -12.24194788 4.17099434 -13.99243164 4.16796875 C-15.17304924 4.16021927 -15.17304924 4.16021927 -16.3775177 4.15231323 C-20.57418203 4.15191096 -24.4659508 4.48014518 -28.60546875 5.265625 C-30.39614681 5.32867704 -32.18884454 5.35233614 -33.98046875 5.328125 C-35.29144531 5.31458984 -35.29144531 5.31458984 -36.62890625 5.30078125 C-37.60730469 5.28337891 -37.60730469 5.28337891 -38.60546875 5.265625 C-38.27546875 4.275625 -37.94546875 3.285625 -37.60546875 2.265625 C-25.17704832 -0.42368365 -12.64655438 -0.02534167 0 0 Z " fill="#68B7AC" transform="translate(453.60546875,577.734375)"/>
<path d="M0 0 C0.33 0 0.66 0 1 0 C1.33 47.85 1.66 95.7 2 145 C10.415 145.495 10.415 145.495 19 146 C19 146.33 19 146.66 19 147 C12.07 147 5.14 147 -2 147 C-2 112.35 -2 77.7 -2 42 C-1.34 42 -0.68 42 0 42 C0 28.14 0 14.28 0 0 Z " fill="#8CC6CE" transform="translate(584,384)"/>
<path d="M0 0 C0.66 0 1.32 0 2 0 C1.09507666 8.37834195 -1.23364288 15.69200699 -4.48828125 23.3984375 C-5.77850116 26.47229475 -6.95323079 29.54532516 -8.0625 32.6875 C-12.30417932 44.3993433 -17.59374409 55.0681931 -23.77636719 65.85839844 C-24.90793897 67.83887483 -26.0229444 69.82761877 -27.1328125 71.8203125 C-27.74898437 72.91085937 -28.36515625 74.00140625 -29 75.125 C-29.53625 76.07632813 -30.0725 77.02765625 -30.625 78.0078125 C-31.305625 78.99394531 -31.305625 78.99394531 -32 80 C-32.66 80 -33.32 80 -34 80 C-34.25652344 80.89460937 -34.51304687 81.78921875 -34.77734375 82.7109375 C-36.00766759 86.02062656 -37.29283779 87.95642746 -39.5625 90.625 C-43.53574556 95.40157936 -47.24753575 100.32667644 -50.921875 105.3359375 C-52.81766744 107.76625789 -54.79618174 109.85359585 -57 112 C-58.15621309 113.32434251 -59.30225901 114.65763652 -60.4375 116 C-63.07760787 119.05280139 -65.80955705 121.51854437 -69 124 C-70.76323505 126.12603185 -70.76323505 126.12603185 -72 128 C-72.99 127.67 -73.98 127.34 -75 127 C-74.32453125 126.26394531 -73.6490625 125.52789063 -72.953125 124.76953125 C-72.05200228 123.78392827 -71.15096517 122.79824701 -70.25 121.8125 C-69.36828125 120.84957031 -68.4865625 119.88664063 -67.578125 118.89453125 C-65.28974028 116.32529931 -63.12904195 113.70116336 -61 111 C-59.375 109.1875 -59.375 109.1875 -58 108 C-57.34 108 -56.68 108 -56 108 C-55.896875 107.401875 -55.79375 106.80375 -55.6875 106.1875 C-54.90298309 103.69130983 -53.90110692 102.74268135 -52 101 C-51.67 100.34 -51.34 99.68 -51 99 C-50.34 99 -49.68 99 -49 99 C-49 98.34 -49 97.68 -49 97 C-48.34 97 -47.68 97 -47 97 C-46.690625 96.21625 -46.38125 95.4325 -46.0625 94.625 C-45 92 -45 92 -44 90 C-43.34 90 -42.68 90 -42 90 C-41.773125 89.113125 -41.54625 88.22625 -41.3125 87.3125 C-40 84 -40 84 -37.68359375 81.73828125 C-34.68007775 78.67355823 -32.79410887 75.60942966 -30.75 71.875 C-30.2240625 70.94494141 -30.2240625 70.94494141 -29.6875 69.99609375 C-28.21203308 67.35727792 -26.95826378 64.87479134 -26 62 C-25.34 62 -24.68 62 -24 62 C-23.7525 61.175 -23.505 60.35 -23.25 59.5 C-21.81295189 55.47626529 -19.97645485 51.78020976 -18 48 C-17.34 48 -16.68 48 -16 48 C-15.94392578 47.11248047 -15.94392578 47.11248047 -15.88671875 46.20703125 C-15.4759775 41.27008253 -14.75908081 38.19380283 -12 34 C-11.27833809 31.68308546 -10.59940471 29.35151077 -10 27 C-9.34 27 -8.68 27 -8 27 C-8 25.35 -8 23.7 -8 22 C-7.34 22 -6.68 22 -6 22 C-5.814375 20.49566406 -5.814375 20.49566406 -5.625 18.9609375 C-5.06976325 15.08014544 -4.09237033 11.39207121 -3 7.625 C-2.649375 6.40039062 -2.29875 5.17578125 -1.9375 3.9140625 C-1 1 -1 1 0 0 Z " fill="#A2D8C7" transform="translate(833,634)"/>
<path d="M0 0 C0.99 0.495 0.99 0.495 2 1 C1.67 1.99 1.34 2.98 1 4 C-1.0625 4.6875 -1.0625 4.6875 -3 5 C-3 5.66 -3 6.32 -3 7 C-4.50952148 8.32519531 -4.50952148 8.32519531 -6.62109375 9.828125 C-7.39259766 10.38113281 -8.16410156 10.93414063 -8.95898438 11.50390625 C-9.77689453 12.08011719 -10.59480469 12.65632812 -11.4375 13.25 C-12.22060547 13.81074219 -13.00371094 14.37148438 -13.81054688 14.94921875 C-19.13485659 18.74415885 -24.54555585 22.39557443 -30 26 C-31.03769531 26.69867187 -32.07539062 27.39734375 -33.14453125 28.1171875 C-34.02496094 28.69726562 -34.90539062 29.27734375 -35.8125 29.875 C-36.70582031 30.47054687 -37.59914063 31.06609375 -38.51953125 31.6796875 C-41 33 -41 33 -45 33 C-45 33.66 -45 34.32 -45 35 C-67.12445534 45.67980664 -67.12445534 45.67980664 -78 50 C-78.81984375 50.34417969 -79.6396875 50.68835938 -80.484375 51.04296875 C-87.18918329 53.82952124 -94.04590711 55.92930237 -101 58 C-101.83273437 58.268125 -102.66546875 58.53625 -103.5234375 58.8125 C-111.52799334 61.36544804 -120.56392122 64 -129 64 C-129 63.01 -129 62.02 -129 61 C-127.96101562 60.81824219 -126.92203125 60.63648438 -125.8515625 60.44921875 C-118.81319033 59.19040534 -111.91771767 57.89643959 -105.11328125 55.6484375 C-103 55 -103 55 -100.48828125 54.51171875 C-97.4424015 53.88532904 -94.73858315 52.78864568 -91.8671875 51.62109375 C-90 51 -90 51 -87 51 C-87 50.34 -87 49.68 -87 49 C-86.24976563 48.84144531 -85.49953125 48.68289063 -84.7265625 48.51953125 C-78.31334809 47.05757683 -72.81157115 45.19067754 -67.05859375 41.98828125 C-65 41 -65 41 -62 41 C-61.67 40.01 -61.34 39.02 -61 38 C-58.63671875 36.8671875 -58.63671875 36.8671875 -55.6875 35.875 C-54.23923828 35.37613281 -54.23923828 35.37613281 -52.76171875 34.8671875 C-50 34 -50 34 -47.70703125 33.5078125 C-46.86205078 33.25644531 -46.86205078 33.25644531 -46 33 C-45.505 32.01 -45.505 32.01 -45 31 C-42.52931011 29.65838883 -39.99424624 28.5016976 -37.4453125 27.31640625 C-35.13677306 26.07363023 -33.76069127 24.90051087 -32 23 C-30.35666496 21.96210419 -28.68756133 20.96432076 -27 20 C-25.6696875 19.1646875 -25.6696875 19.1646875 -24.3125 18.3125 C-22 17 -22 17 -20 17 C-20 16.34 -20 15.68 -20 15 C-18.35443434 13.96564444 -16.6829392 12.97236487 -15 12 C-11.42245893 9.26977129 -8.0368256 6.32627756 -4.6484375 3.3671875 C-3 2 -3 2 0 0 Z " fill="#A1D7BD" transform="translate(745,772)"/>
<path d="M0 0 C0.33 0 0.66 0 1 0 C1 2.97 1 5.94 1 9 C1.66 9 2.32 9 3 9 C3.10317777 31.21496694 3.12733923 53.4319488 2.73654175 75.6444397 C2.70414804 77.5719159 2.67648988 79.49947819 2.65383911 81.42709351 C2.4941086 94.39073112 1.67586201 106.1077177 -4 118 C-4.66 117.34 -5.32 116.68 -6 116 C-5.73023404 112.965133 -5.19084277 110.446672 -3.99267578 107.64233398 C-2.94150381 104.84429309 -2.60109421 102.50885594 -2.3671875 99.53515625 C-2.28331787 98.49520508 -2.19944824 97.45525391 -2.11303711 96.38378906 C-2.03448486 95.28776367 -1.95593262 94.19173828 -1.875 93.0625 C-1.78935791 91.93166992 -1.70371582 90.80083984 -1.61547852 89.63574219 C-1.13323454 82.93153924 -0.86643923 76.32524521 -1 69.60546875 C-1 63.85040563 -0.63001901 58.11076367 -0.26733398 52.36816406 C-0.21907471 51.51577148 -0.17081543 50.66337891 -0.12109375 49.78515625 C-0.0739624 49.03113525 -0.02683105 48.27711426 0.02172852 47.50024414 C0.05627221 44.86154415 0.05627221 44.86154415 -0.48413086 41.73144531 C-1.05316764 37.61542158 -1.14407876 33.6584578 -1.1328125 29.51171875 C-1.13376923 28.72730911 -1.13472595 27.94289948 -1.13571167 27.13471985 C-1.13638792 25.49012165 -1.13457267 23.8455207 -1.13037109 22.20092773 C-1.12497866 19.67751152 -1.1303533 17.15427038 -1.13671875 14.63085938 C-1.13605858 13.02864544 -1.13477867 11.42643161 -1.1328125 9.82421875 C-1.13483673 9.06904465 -1.13686096 8.31387054 -1.13894653 7.53581238 C-1.11498548 2.22997097 -1.11498548 2.22997097 0 0 Z " fill="#64C6B0" transform="translate(535,675)"/>
<path d="M0 0 C-4.32387438 3.65866294 -8.34923902 5 -14 5 C-14 5.66 -14 6.32 -14 7 C-14.680625 7.103125 -15.36125 7.20625 -16.0625 7.3125 C-19.59812246 8.13998611 -22.68730805 9.52111967 -26 11 C-26.86625 11.33 -27.7325 11.66 -28.625 12 C-31.26296607 13.11072256 -33.55533167 14.51100728 -36 16 C-36.83660156 16.495 -37.67320312 16.99 -38.53515625 17.5 C-39.36917969 17.995 -40.20320313 18.49 -41.0625 19 C-41.89910156 19.495 -42.73570312 19.99 -43.59765625 20.5 C-46.00861788 21.95492374 -46.00861788 21.95492374 -48.16796875 23.64453125 C-50.1231773 25.09113544 -51.62563816 25.57600682 -54 26 C-54 25.01 -54 24.02 -54 23 C-52.11233558 21.40157449 -50.30003316 20.04813893 -48.25 18.6875 C-47.66379883 18.29087158 -47.07759766 17.89424316 -46.47363281 17.4855957 C-40.90070736 13.79252192 -35.07538311 10.78490763 -29 8 C-28.22011719 7.63261719 -27.44023437 7.26523437 -26.63671875 6.88671875 C-24.44145016 5.87681722 -22.23174097 4.92638304 -20 4 C-19.11441406 3.62617187 -18.22882813 3.25234375 -17.31640625 2.8671875 C-11.24187232 0.45759429 -6.52856083 -0.42810235 0 0 Z " fill="#55ACA1" transform="translate(414,582)"/>
<path d="M0 0 C0.99135956 -0.00503792 0.99135956 -0.00503792 2.00274658 -0.01017761 C4.16819173 -0.01961009 6.33355908 -0.0216261 8.49902344 -0.02270508 C10.01023388 -0.02592051 11.52144401 -0.0292848 13.03265381 -0.03279114 C16.18974531 -0.03876126 19.34680951 -0.04063297 22.50390625 -0.04003906 C26.55491294 -0.03993698 30.60574616 -0.05364573 34.65671158 -0.07081127 C37.77244885 -0.08190474 40.88814362 -0.08395918 44.00389862 -0.08342934 C45.49827427 -0.08461129 46.99265095 -0.08904506 48.48700714 -0.0967617 C50.56958935 -0.1065182 52.6517871 -0.10370227 54.734375 -0.09765625 C55.91984924 -0.09908127 57.10532349 -0.10050629 58.32672119 -0.10197449 C61.10839844 0.14526367 61.10839844 0.14526367 63.10839844 2.14526367 C62.73339844 4.27026367 62.73339844 4.27026367 62.10839844 6.14526367 C61.11839844 4.66026367 61.11839844 4.66026367 60.10839844 3.14526367 C56.95576325 2.66521929 56.95576325 2.66521929 53.18017578 2.71289062 C52.11172173 2.69760315 52.11172173 2.69760315 51.02168274 2.68200684 C48.66248832 2.6517634 46.30369911 2.642594 43.94433594 2.63354492 C42.31050251 2.61670657 40.6766821 2.59855748 39.0428772 2.57914734 C34.73897368 2.53154923 30.43512293 2.50180361 26.13104248 2.47570801 C21.74057589 2.44595174 17.35029136 2.3994046 12.95996094 2.35424805 C4.34286267 2.26810343 -4.274252 2.20080811 -12.89160156 2.14526367 C-12.89160156 1.81526367 -12.89160156 1.48526367 -12.89160156 1.14526367 C-8.54221619 0.31421025 -4.42546963 0.01419165 0 0 Z " fill="#70BCB1" transform="translate(474.8916015625,577.854736328125)"/>
<path d="M0 0 C2.50584545 0.05339182 5.01170492 0.10613006 7.51757812 0.15820312 C13.57440048 0.28545922 19.63100186 0.42068738 25.6875 0.5625 C25.6875 1.2225 25.6875 1.8825 25.6875 2.5625 C0.9375 2.5625 -23.8125 2.5625 -49.3125 2.5625 C-49.3125 1.9025 -49.3125 1.2425 -49.3125 0.5625 C-32.84162926 -0.50918499 -16.49443259 -0.38651084 0 0 Z " fill="#9BD0D3" transform="translate(653.3125,529.4375)"/>
<path d="M0 0 C-0.33 0.99 -0.66 1.98 -1 3 C-3.74735702 4.29269746 -6.4083454 5.39594192 -9.25 6.4375 C-10.0646875 6.74461914 -10.879375 7.05173828 -11.71875 7.36816406 C-18.40036562 9.85538497 -25.15354518 12.01322224 -32 14 C-32.82242188 14.26425781 -33.64484375 14.52851562 -34.4921875 14.80078125 C-42.50430292 17.36203126 -51.5541079 20 -60 20 C-60 19.01 -60 18.02 -60 17 C-58.96101562 16.81824219 -57.92203125 16.63648438 -56.8515625 16.44921875 C-49.81319033 15.19040534 -42.91771767 13.89643959 -36.11328125 11.6484375 C-34 11 -34 11 -31.48828125 10.51171875 C-28.4424015 9.88532904 -25.73858315 8.78864568 -22.8671875 7.62109375 C-21 7 -21 7 -18 7 C-18 6.34 -18 5.68 -18 5 C-17.16855469 4.80664062 -16.33710937 4.61328125 -15.48046875 4.4140625 C-14.39378906 4.15367187 -13.30710937 3.89328125 -12.1875 3.625 C-11.10855469 3.36976563 -10.02960937 3.11453125 -8.91796875 2.8515625 C-5.42815899 1.83311735 -3.69109049 0 0 0 Z " fill="#98D1B5" transform="translate(676,816)"/>
<path d="M0 0 C1.39136534 0.04232649 2.78256436 0.09034885 4.17358398 0.14282227 C5.27016579 0.17823875 5.27016579 0.17823875 6.38890076 0.21437073 C8.7326823 0.29117936 11.07614756 0.37512882 13.41967773 0.45922852 C15.00494852 0.51243203 16.59023491 0.56517253 18.17553711 0.61743164 C22.06961905 0.74681756 25.96343184 0.88260983 29.85717773 1.02172852 C29.19717773 1.68172852 28.53717773 2.34172852 27.85717773 3.02172852 C17.95717773 3.02172852 8.05717773 3.02172852 -2.14282227 3.02172852 C-2.47282227 24.14172852 -2.80282227 45.26172852 -3.14282227 67.02172852 C-3.80282227 66.69172852 -4.46282227 66.36172852 -5.14282227 66.02172852 C-5.24083199 48.45386308 -5.29480465 30.89453954 -4.70532227 13.33422852 C-4.66608643 12.10099854 -4.62685059 10.86776855 -4.58642578 9.59716797 C-4.54445068 8.47528076 -4.50247559 7.35339355 -4.45922852 6.19750977 C-4.4225708 5.21693604 -4.38591309 4.2363623 -4.34814453 3.22607422 C-4.02208327 -0.27452882 -3.62198851 0.02504133 0 0 Z " fill="#75C1CD" transform="translate(539.142822265625,380.978271484375)"/>
<path d="M0 0 C0.71198264 0.03967864 1.42396528 0.07935728 2.15752316 0.1202383 C5.14124924 0.31348334 7.6380487 0.61942118 10.48999023 1.57006836 C10.15999023 2.23006836 9.82999023 2.89006836 9.48999023 3.57006836 C0.90999023 3.57006836 -7.67000977 3.57006836 -16.51000977 3.57006836 C-16.51000977 3.24006836 -16.51000977 2.91006836 -16.51000977 2.57006836 C-40.60000977 2.24006836 -64.69000977 1.91006836 -89.51000977 1.57006836 C-89.51000977 1.24006836 -89.51000977 0.91006836 -89.51000977 0.57006836 C-79.37300663 0.41505731 -69.23592745 0.26690123 -59.09870243 0.12710476 C-54.38980244 0.06196005 -49.6809575 -0.00540159 -44.97216797 -0.078125 C-40.41400558 -0.1484356 -35.85579161 -0.21253737 -31.29748344 -0.27262688 C-29.57265582 -0.29639932 -27.84785567 -0.32227726 -26.12309456 -0.35046577 C-17.39715694 -0.49169328 -8.71590715 -0.49343189 0 0 Z " fill="#79C6CD" transform="translate(526.510009765625,528.429931640625)"/>
<path d="M0 0 C0.33 0 0.66 0 1 0 C1.34200944 4.06181685 1.67194819 8.12453396 2 12.1875 C2.14308594 13.88422852 2.14308594 13.88422852 2.2890625 15.61523438 C3.16841024 26.63848636 3.20500488 37.58557379 2.625 48.625 C2.5940625 49.39972656 2.563125 50.17445313 2.53125 50.97265625 C2.33387434 54.76884809 2.15071371 56.77392943 0 60 C-1.38657582 55.66695055 -1.47931544 51.16706557 -0.49829102 46.73168945 C0.117433 43.35621861 0.11177647 40.16168166 0.09765625 36.73046875 C0.0962413 36.04946609 0.09482635 35.36846344 0.09336853 34.66682434 C0.08780298 32.50700353 0.07525703 30.34728911 0.0625 28.1875 C0.05748054 26.71679838 0.05291841 25.24609512 0.04882812 23.77539062 C0.03784488 20.1835596 0.02060422 16.5917902 0 13 C-0.33 13 -0.66 13 -1 13 C-1.02696365 11.20841511 -1.04637917 9.41671527 -1.0625 7.625 C-1.07410156 6.62726562 -1.08570313 5.62953125 -1.09765625 4.6015625 C-1 2 -1 2 0 0 Z " fill="#A0D8D2" transform="translate(842,529)"/>
<path d="M0 0 C3.37866009 4.50488011 3.37866009 4.50488011 3.36328125 8.24609375 C3.36392578 9.07407471 3.36457031 9.90205566 3.36523438 10.75512695 C3.33913086 12.08290161 3.33913086 12.08290161 3.3125 13.4375 C3.30412109 14.35168701 3.29574219 15.26587402 3.28710938 16.20776367 C3.11683098 26.19033481 2.12494894 36.08638746 1 46 C0.67 46 0.34 46 0 46 C0 30.82 0 15.64 0 0 Z " fill="#57B4AB" transform="translate(535,580)"/>
<path d="M0 0 C2.53153381 3.86933623 2.44843762 8.02754983 2.625 12.5 C2.66149658 13.30010498 2.69799316 14.10020996 2.7355957 14.92456055 C2.8367259 17.2827652 2.92162081 19.64094015 3 22 C3.04253906 23.21300781 3.08507812 24.42601562 3.12890625 25.67578125 C3.29395092 34.51117246 3.29395092 34.51117246 1 39 C0.01 39.66 -0.98 40.32 -2 41 C-2.99 40.34 -3.98 39.68 -5 39 C-3.68 39 -2.36 39 -1 39 C-1.00523682 38.1028125 -1.01047363 37.205625 -1.01586914 36.28125 C-1.03301853 32.9191014 -1.04550216 29.557 -1.05493164 26.19482422 C-1.05992785 24.74592348 -1.06672709 23.29702769 -1.07543945 21.84814453 C-1.16225376 7.02843217 -1.16225376 7.02843217 0 0 Z " fill="#9DD5D3" transform="translate(731,539)"/>
<path d="M0 0 C0.33 1.32 0.66 2.64 1 4 C0.03900391 4.8353125 0.03900391 4.8353125 -0.94140625 5.6875 C-5.79055286 9.96573367 -10.30058713 14.28511924 -14.48046875 19.21875 C-17.9533065 23.28973718 -21.77024536 26.73704642 -26 30 C-25.63741272 24.92785212 -22.92269097 22.39908621 -19.43359375 19.04296875 C-18.88010757 18.49514236 -18.3266214 17.94731598 -17.75636292 17.38288879 C-15.99259989 15.64145248 -14.21542213 13.91446641 -12.4375 12.1875 C-11.23671735 11.00678704 -10.03683652 9.82515616 -8.83789062 8.64257812 C-5.90227171 5.75097731 -2.95454518 2.87225469 0 0 Z " fill="#71BECA" transform="translate(369,351)"/>
<path d="M0 0 C0 0.66 0 1.32 0 2 C3.3 2 6.6 2 10 2 C10 2.33 10 2.66 10 3 C8.04707031 3.09087891 8.04707031 3.09087891 6.0546875 3.18359375 C4.32811601 3.26804562 2.601554 3.35269126 0.875 3.4375 C0.0190625 3.47681641 -0.836875 3.51613281 -1.71875 3.55664062 C-6.2275547 3.78208086 -10.54646463 4.23214907 -15 5 C-16.79067806 5.06305204 -18.58337579 5.08671114 -20.375 5.0625 C-21.68597656 5.04896484 -21.68597656 5.04896484 -23.0234375 5.03515625 C-24.00183594 5.01775391 -24.00183594 5.01775391 -25 5 C-24.67 4.01 -24.34 3.02 -24 2 C-15.92437827 0.56205146 -8.2056037 -0.29599372 0 0 Z " fill="#60B2A8" transform="translate(440,578)"/>
<path d="M0 0 C1.48168945 1.13989258 1.48168945 1.13989258 3 3 C3.34057617 5.63549805 3.34057617 5.63549805 3.29296875 8.76171875 C3.28330078 9.87998047 3.27363281 10.99824219 3.26367188 12.15039062 C3.23853516 13.31763672 3.21339844 14.48488281 3.1875 15.6875 C3.17396484 16.86634766 3.16042969 18.04519531 3.14648438 19.25976562 C3.11109326 22.17363411 3.06171809 25.08658945 3 28 C2.01 28 1.02 28 0 28 C-1.08209479 22.73552299 -1.1495458 17.6593945 -1.125 12.3125 C-1.12886719 11.45849609 -1.13273438 10.60449219 -1.13671875 9.72460938 C-1.13542969 8.90412109 -1.13414062 8.08363281 -1.1328125 7.23828125 C-1.13168457 6.49618408 -1.13055664 5.75408691 -1.12939453 4.98950195 C-1 3 -1 3 0 0 Z " fill="#65CEAD" transform="translate(535,644)"/>
<path d="M0 0 C0.66 0.33 1.32 0.66 2 1 C0.5204918 24.43852459 0.5204918 24.43852459 -3 35 C-5.23032083 31.65451875 -5.19849823 31.05043238 -4.75 27.25 C-4.66234375 26.43015625 -4.5746875 25.6103125 -4.484375 24.765625 C-4 22 -4 22 -3.0234375 18.66796875 C-1.94144287 14.79013305 -1.3521971 11.04826921 -0.875 7.0625 C-0.78863281 6.37865234 -0.70226562 5.69480469 -0.61328125 4.99023438 C-0.40397715 3.32742954 -0.20128278 1.66379487 0 0 Z " fill="#A4DACD" transform="translate(840,595)"/>
<path d="M0 0 C2.75765521 2.75765521 3.62254318 6.01373622 4.875 9.625 C5.13748535 10.37322021 5.3999707 11.12144043 5.67041016 11.89233398 C8.2693289 19.47847447 10.2127437 27.18863864 12 35 C11.01 35 10.02 35 9 35 C6.81622574 27.64301292 4.70580177 20.38424983 3.4921875 12.79296875 C3.32976563 12.20128906 3.16734375 11.60960937 3 11 C2.34 10.67 1.68 10.34 1 10 C0.5859375 7.71484375 0.5859375 7.71484375 0.375 4.9375 C0.30023437 4.01839844 0.22546875 3.09929687 0.1484375 2.15234375 C0.09945312 1.44207031 0.05046875 0.73179687 0 0 Z " fill="#9FD6D1" transform="translate(825,460)"/>
<path d="M0 0 C0.33 0 0.66 0 1 0 C1 4.62 1 9.24 1 14 C1.66 14 2.32 14 3 14 C2.34 19.94 1.68 25.88 1 32 C0.34 31.67 -0.32 31.34 -1 31 C-1.02932237 27.33335046 -1.04690637 23.6667316 -1.0625 20 C-1.07087891 18.97003906 -1.07925781 17.94007813 -1.08789062 16.87890625 C-1.10613637 11.14974387 -0.86475384 5.66515899 0 0 Z " fill="#75C2CC" transform="translate(535,462)"/>
<path d="M0 0 C3.6138345 3.43061562 6.49946458 6.9104513 9.25 11.0625 C10.27867187 12.59583984 10.27867187 12.59583984 11.328125 14.16015625 C12.74212078 16.56196685 13.55723114 18.28478509 14 21 C13.34 21 12.68 21 12 21 C10.66796875 19.20703125 10.66796875 19.20703125 9.1875 16.8125 C7.3123529 13.86649683 5.76719768 11.78271783 3.1875 9.375 C0.38796772 6.33550781 0.2382868 4.05087568 0 0 Z " fill="#9DD6D8" transform="translate(792,399)"/>
<path d="M0 0 C2.0625 0.4375 2.0625 0.4375 4 1 C1.37350692 2.75099539 -0.61808587 3.69309325 -3.5625 4.6875 C-4.74005859 5.09548828 -4.74005859 5.09548828 -5.94140625 5.51171875 C-8 6 -8 6 -10 5 C-12.02182331 5.42011913 -13.95465845 6.02423071 -15.9296875 6.625 C-18.26953084 7.04882068 -19.75739098 6.72407107 -22 6 C-15.81999478 3.73399809 -9.92259238 2.36764587 -3.40625 1.4296875 C-1.05603335 1.2466309 -1.05603335 1.2466309 0 0 Z " fill="#62C4A3" transform="translate(496,824)"/>
<path d="M0 0 C1.46513058 0.01988865 2.93011492 0.05558907 4.39453125 0.10546875 C5.14412109 0.11900391 5.89371094 0.13253906 6.66601562 0.14648438 C8.51332892 0.18178336 10.36027191 0.23558958 12.20703125 0.29296875 C11.87703125 1.28296875 11.54703125 2.27296875 11.20703125 3.29296875 C5.26703125 3.29296875 -0.67296875 3.29296875 -6.79296875 3.29296875 C-3.79296875 0.29296875 -3.79296875 0.29296875 0 0 Z " fill="#A1CEC3" transform="translate(626.79296875,577.70703125)"/>
<path d="M0 0 C0.33 0 0.66 0 1 0 C1.33 9.57 1.66 19.14 2 29 C1.67 29 1.34 29 1 29 C0.67 27.35 0.34 25.7 0 24 C-0.33 24 -0.66 24 -1 24 C-1.12867289 15.93649887 -0.79681084 8.02502344 0 0 Z " fill="#6ABCC7" transform="translate(276,557)"/>
<path d="M0 0 C2.24151134 2.24151134 2.88195135 3.93138755 4 6.875 C4.95294589 9.36903808 5.87895479 11.77051845 7.125 14.1328125 C8 16 8 16 8 19 C7.34 19 6.68 19 6 19 C5.32880451 17.5437455 4.66318193 16.08492133 4 14.625 C3.62875 13.81289063 3.2575 13.00078125 2.875 12.1640625 C2 10 2 10 2 8 C1.34 7.67 0.68 7.34 0 7 C0 4.69 0 2.38 0 0 Z " fill="#9FD8D7" transform="translate(817,440)"/>
<path d="M0 0 C4.40776345 0.40070577 6.93106417 2.20501791 10.3515625 4.7890625 C12.14204741 6.10434762 13.96725218 7.10559096 16 8 C15.67 8.66 15.34 9.32 15 10 C12.5625 9.1875 12.5625 9.1875 10 8 C9.67 7.01 9.34 6.02 9 5 C7.88625 4.9175 6.7725 4.835 5.625 4.75 C2 4 2 4 0.5625 1.9375 C0.376875 1.298125 0.19125 0.65875 0 0 Z " fill="#9DD6DD" transform="translate(697,315)"/>
<path d="M0 0 C0.33 0 0.66 0 1 0 C1.33868777 2.20751848 1.67071689 4.41605911 2 6.625 C2.185625 7.85476563 2.37125 9.08453125 2.5625 10.3515625 C2.95402516 13.6166027 3.08080924 16.71712451 3 20 C2.34 20.33 1.68 20.66 1 21 C-0.22408898 17.32773307 -0.39460795 13.7694619 -0.625 9.9375 C-0.6765625 9.20466797 -0.728125 8.47183594 -0.78125 7.71679688 C-1.12287628 2.24575255 -1.12287628 2.24575255 0 0 Z " fill="#9ED8CE" transform="translate(839,508)"/>
<path d="M0 0 C-0.33 0.66 -0.66 1.32 -1 2 C-3.50390625 2.6328125 -3.50390625 2.6328125 -6.5625 3.125 C-8.08037109 3.37636719 -8.08037109 3.37636719 -9.62890625 3.6328125 C-10.80259766 3.81457031 -10.80259766 3.81457031 -12 4 C-11.67 3.01 -11.34 2.02 -11 1 C-9.2578125 0.234375 -9.2578125 0.234375 -7.125 -0.25 C-6.07699219 -0.50523437 -6.07699219 -0.50523437 -5.0078125 -0.765625 C-3 -1 -3 -1 0 0 Z " fill="#55BDAA" transform="translate(489,829)"/>
<path d="M0 0 C3.63 0 7.26 0 11 0 C11.33 0.99 11.66 1.98 12 3 C9.69 2.67 7.38 2.34 5 2 C4.67 2.66 4.34 3.32 4 4 C4 3.34 4 2.68 4 2 C2.35 2 0.7 2 -1 2 C-0.67 1.34 -0.34 0.68 0 0 Z " fill="#A6D0C7" transform="translate(664,578)"/>
<path d="M0 0 C-1.0197307 3.77300358 -1.65872662 4.80206144 -5.125 6.8125 C-6.07375 7.204375 -7.0225 7.59625 -8 8 C-8 7.01 -8 6.02 -8 5 C-2.65116279 0 -2.65116279 0 0 0 Z " fill="#A6D9C7" transform="translate(757,763)"/>
<path d="M0 0 C1.2065625 0.0309375 1.2065625 0.0309375 2.4375 0.0625 C1.7775 0.7225 1.1175 1.3825 0.4375 2.0625 C1.0975 2.7225 1.7575 3.3825 2.4375 4.0625 C1.798125 4.165625 1.15875 4.26875 0.5 4.375 C-0.180625 4.601875 -0.86125 4.82875 -1.5625 5.0625 C-1.8925 6.0525 -2.2225 7.0425 -2.5625 8.0625 C-2.8925 8.0625 -3.2225 8.0625 -3.5625 8.0625 C-3.60491723 5.72955225 -3.60342937 3.39547433 -3.5625 1.0625 C-2.5625 0.0625 -2.5625 0.0625 0 0 Z " fill="#8BC1B0" transform="translate(585.5625,577.9375)"/>
<path d="M0 0 C6.57142857 5.14285714 6.57142857 5.14285714 8 9 C7.01 9.33 6.02 9.66 5 10 C3.02 7.03 1.04 4.06 -1 1 C-0.67 0.67 -0.34 0.34 0 0 Z " fill="#9FD4D7" transform="translate(765,366)"/>
<path d="M0 0 C3.63 0.33 7.26 0.66 11 1 C6.78492722 4.16130459 5.93928888 4.3367697 1 4 C0.67 2.68 0.34 1.36 0 0 Z " fill="#99D4DE" transform="translate(588,280)"/>
<path d="M0 0 C0.33 0 0.66 0 1 0 C1.08153933 1.58246707 1.13943557 3.16616273 1.1875 4.75 C1.23970703 6.07257812 1.23970703 6.07257812 1.29296875 7.421875 C1 10 1 10 -2 14 C-2 10.37 -2 6.74 -2 3 C-1.34 3 -0.68 3 0 3 C0 2.01 0 1.02 0 0 Z " fill="#93CCCA" transform="translate(732,533)"/>
<path d="M0 0 C-3.26545761 1.88391785 -6.28111761 2.49287967 -10 3 C-10 2.34 -10 1.68 -10 1 C-10.99 0.67 -11.98 0.34 -13 0 C-8.38926889 -1.29676812 -4.66159911 -0.71109139 0 0 Z " fill="#6CC6D2" transform="translate(409,534)"/>
<path d="M0 0 C2.86453858 3.41016497 4.34703566 6.90694544 6 11 C4.68 11 3.36 11 2 11 C0 3.375 0 3.375 0 0 Z " fill="#9CDADA" transform="translate(807,421)"/>
<path d="M0 0 C-2.12966005 2.12966005 -3.04068204 2.47624662 -5.875 3.1875 C-6.55304688 3.36667969 -7.23109375 3.54585937 -7.9296875 3.73046875 C-10.22818556 4.02970718 -11.80550964 3.69377386 -14 3 C-9.03006806 0.56574762 -5.65394631 -0.34615998 0 0 Z " fill="#6BC5AF" transform="translate(488,827)"/>
<path d="M0 0 C0.66 0.33 1.32 0.66 2 1 C1.67 1.99 1.34 2.98 1 4 C-1.0625 4.6875 -1.0625 4.6875 -3 5 C-3 5.66 -3 6.32 -3 7 C-3.66 6.67 -4.32 6.34 -5 6 C-3.63016497 2.83884224 -3.0109362 2.0072908 0 0 Z " fill="#55A399" transform="translate(349,615)"/>
<path d="M0 0 C1 3 1 3 0.0625 5.1875 C-0.4634375 6.0846875 -0.4634375 6.0846875 -1 7 C-2.65 7 -4.3 7 -6 7 C-4.02 4.69 -2.04 2.38 0 0 Z " fill="#4EB3A7" transform="translate(330,639)"/>
<path d="M0 0 C0.66 0 1.32 0 2 0 C1.34 3.96 0.68 7.92 0 12 C-0.33 12 -0.66 12 -1 12 C-1.02687279 10.18757948 -1.04633715 8.37504767 -1.0625 6.5625 C-1.07410156 5.55316406 -1.08570313 4.54382813 -1.09765625 3.50390625 C-1 1 -1 1 0 0 Z " fill="#ADDFD2" transform="translate(833,634)"/>
<path d="M0 0 C1.46726798 3.81489674 0.43336419 6.29011622 -1 10 C-1.66 9.01 -2.32 8.02 -3 7 C-1.59459459 1.59459459 -1.59459459 1.59459459 0 0 Z " fill="#76CAD0" transform="translate(291,612)"/>
<path d="M0 0 C0 0.99 0 1.98 0 3 C-2.31 4.32 -4.62 5.64 -7 7 C-6.3125 4.625 -6.3125 4.625 -5 2 C-2.375 0.6875 -2.375 0.6875 0 0 Z " fill="#A6D9C2" transform="translate(710,798)"/>
<path d="M0 0 C0.66 0.33 1.32 0.66 2 1 C1.45773019 4.79588866 -0.20127563 6.47211993 -3 9 C-2.44271087 5.65626525 -1.64826111 2.96687001 0 0 Z " fill="#AFDCCB" transform="translate(782,733)"/>
<path d="M0 0 C5.875 3.75 5.875 3.75 7 6 C2.25 5.25 2.25 5.25 0 3 C0 2.01 0 1.02 0 0 Z " fill="#9DDBDE" transform="translate(750,352)"/>
<path d="M0 0 C2.375 0.25 2.375 0.25 5 1 C6.3125 3.0625 6.3125 3.0625 7 5 C4.0625 4.1875 4.0625 4.1875 1 3 C0.67 2.01 0.34 1.02 0 0 Z " fill="#94CFDC" transform="translate(697,315)"/>
<path d="M0 0 C1.98 0.99 1.98 0.99 4 2 C4 5.3 4 8.6 4 12 C3.34 12 2.68 12 2 12 C1.93941406 11.38511719 1.87882813 10.77023437 1.81640625 10.13671875 C1.73261719 9.32847656 1.64882813 8.52023437 1.5625 7.6875 C1.48128906 6.88699219 1.40007813 6.08648438 1.31640625 5.26171875 C1.04734307 2.83912821 1.04734307 2.83912821 0 0 Z " fill="#5BCFB8" transform="translate(534,672)"/>
<path d="M0 0 C0.66 0.33 1.32 0.66 2 1 C2.4140625 3.06640625 2.4140625 3.06640625 2.625 5.5625 C2.69976563 6.38878906 2.77453125 7.21507812 2.8515625 8.06640625 C2.92503906 9.02353516 2.92503906 9.02353516 3 10 C0.59392032 7.72327944 -0.58050415 6.35596682 -1 3 C-0.67 2.01 -0.34 1.02 0 0 Z " fill="#A4DDD3" transform="translate(836,497)"/>
<path d="M0 0 C0.66 1.32 1.32 2.64 2 4 C0.02 4.33 -1.96 4.66 -4 5 C-4.33 4.34 -4.66 3.68 -5 3 C-3.35 2.01 -1.7 1.02 0 0 Z " fill="#69C7D3" transform="translate(419,315)"/>
<path d="M0 0 C1.5 1.1875 1.5 1.1875 3 3 C3.1875 5.6875 3.1875 5.6875 3 8 C1.68 7.67 0.36 7.34 -1 7 C-0.67 4.69 -0.34 2.38 0 0 Z " fill="#69D4A3" transform="translate(535,644)"/>
<path d="M0 0 C-1.25 1.5625 -1.25 1.5625 -3 3 C-5.1875 2.6875 -5.1875 2.6875 -7 2 C-7 1.34 -7 0.68 -7 0 C-4.3333581 -1.33332095 -2.83319697 -0.67102033 0 0 Z " fill="#6FC8D6" transform="translate(402,330)"/>
<path d="M0 0 C2.64 0.33 5.28 0.66 8 1 C4.86501708 2.85776765 2.62528568 3.20140476 -1 3 C-0.67 2.01 -0.34 1.02 0 0 Z " fill="#8EC8DA" transform="translate(601,282)"/>
</svg>
